<?xml version="1.0" standalone="no"?><!DOCTYPE svg PUBLIC "-//W3C//DTD SVG 1.1//EN" "http://www.w3.org/Graphics/SVG/1.1/DTD/svg11.dtd"><svg t="1569576946164" class="icon" viewBox="0 0 1024 1024" version="1.1" xmlns="http://www.w3.org/2000/svg" p-id="6280" xmlns:xlink="http://www.w3.org/1999/xlink" width="200" height="200"><defs><style type="text/css"></style></defs><path d="M512 128.1875c103.78125 0 201.5625 11.53125 275.53125 32.53125 33.5625 9.5625 60.9375 20.71875 79.21875 32.53125 17.4375 11.25 19.96875 18.46875 20.25 19.3125-0.1875 0.84375-2.8125 8.0625-20.25 19.3125-18.28125 11.71875-45.65625 22.96875-79.21875 32.53125-73.96875 20.90625-171.75 32.53125-275.53125 32.53125s-201.5625-11.53125-275.53125-32.53125c-33.5625-9.5625-60.9375-20.71875-79.21875-32.53125-17.4375-11.25-19.96875-18.46875-20.25-19.3125 0.1875-0.84375 2.8125-8.0625 20.25-19.3125 18.28125-11.71875 45.65625-22.96875 79.21875-32.53125 73.96875-21 171.75-32.53125 275.53125-32.53125m0-37.5c-227.8125 0-412.5 54.5625-412.5 121.875s184.6875 121.875 412.5 121.875 412.5-54.5625 412.5-121.875-184.6875-121.875-412.5-121.875zM137 210.5H99.5v600.9375h37.5v-600.9375z m787.5-0.28125h-37.5v600.9375h37.5v-600.9375zM887 811.0625v0.46875c-0.1875 0.84375-2.8125 8.0625-20.25 19.3125-18.28125 11.71875-45.65625 22.96875-79.21875 32.53125-73.96875 20.90625-171.75 32.4375-275.53125 32.4375s-201.5625-11.53125-275.53125-32.53125c-33.5625-9.5625-60.9375-20.71875-79.21875-32.53125-17.4375-11.25-19.96875-18.46875-20.25-19.3125v-0.28125l-37.5 0.28125v0.09375c0 67.3125 184.6875 121.875 412.5 121.875s412.5-54.5625 412.5-121.875v-0.375l-37.5-0.09375z m0-197.34375v0.46875c-0.1875 0.84375-2.8125 8.0625-20.25 19.3125-18.28125 11.71875-45.65625 22.96875-79.21875 32.53125C713.5625 686.9375 615.78125 698.5625 512 698.5625s-201.5625-11.53125-275.53125-32.53125c-33.5625-9.5625-60.9375-20.71875-79.21875-32.53125-17.4375-11.25-19.96875-18.46875-20.25-19.3125v-0.28125l-37.5 0.28125v0.09375c0 67.3125 184.6875 121.875 412.5 121.875s412.5-54.5625 412.5-121.875v-0.375l-37.5-0.1875z m0-207.65625v0.46875c-0.1875 0.84375-2.8125 8.0625-20.25 19.3125-18.28125 11.71875-45.65625 22.96875-79.21875 32.53125-73.96875 20.90625-171.75 32.53125-275.53125 32.53125s-201.5625-11.53125-275.53125-32.53125c-33.5625-9.5625-60.9375-20.71875-79.21875-32.53125-17.4375-11.25-19.96875-18.46875-20.25-19.3125v-0.28125l-37.5 0.28125v0.09375c0 67.3125 184.6875 121.875 412.5 121.875s412.5-54.5625 412.5-121.875v-0.375l-37.5-0.1875z" p-id="6281" fill="#1296db"></path></svg>